{
	"asset":{
		"generator":"Khronos glTF Blender I/O v4.0.44",
		"version":"2.0"
	},
	"scene":0,
	"scenes":[
		{
			"name":"Scene",
			"nodes":[
				13
			]
		}
	],
	"nodes":[
		{
			"name":"Bone.001",
			"rotation":[
				-3.552713467042264e-15,
				7.105427357601002e-15,
				-1.5881867761018131e-22,
				1
			],
			"translation":[
				-0.8613589406013489,
				4.76837158203125e-07,
				-7.319890471535473e-08
			]
		},
		{
			"name":"Bone.002",
			"rotation":[
				-3.552713467042264e-15,
				7.105427357601002e-15,
				-1.5881867761018131e-22,
				1
			],
			"translation":[
				-1.5419363975524902,
				4.76837158203125e-07,
				-1.310348665128913e-07
			]
		},
		{
			"name":"Bone.003",
			"rotation":[
				-3.552713467042264e-15,
				7.105427357601002e-15,
				-1.5881867761018131e-22,
				1
			],
			"translation":[
				-2.204119920730591,
				4.76837158203125e-07,
				-1.8730771955688397e-07
			]
		},
		{
			"name":"Bone.004",
			"rotation":[
				-3.552713467042264e-15,
				7.105427357601002e-15,
				-1.5881867761018131e-22,
				1
			],
			"translation":[
				-2.9766669273376465,
				4.76837158203125e-07,
				-2.529593245981232e-07
			]
		},
		{
			"name":"Bone.005",
			"rotation":[
				-3.552713467042264e-15,
				7.105427357601002e-15,
				-1.5881867761018131e-22,
				1
			],
			"translation":[
				-3.7124264240264893,
				4.76837158203125e-07,
				-3.1548469792141987e-07
			]
		},
		{
			"children":[
				0,
				1,
				2,
				3,
				4
			],
			"name":"Bone",
			"rotation":[
				-3.8359463161441454e-08,
				4.249036678061202e-08,
				-7.271917083218873e-16,
				1
			],
			"scale":[
				1,
				0.9999999403953552,
				0.9999999403953552
			]
		},
		{
			"name":"Bone.006",
			"translation":[
				0,
				-4.76837158203125e-07,
				2.571857452392578
			]
		},
		{
			"name":"Bone.007",
			"rotation":[
				-2.980232594040899e-08,
				5.960463766996327e-08,
				0,
				1
			],
			"scale":[
				1,
				0.9999999403953552,
				0.9999999403953552
			],
			"translation":[
				-1.5833016633987427,
				0.9959197044372559,
				3.1718573570251465
			]
		},
		{
			"name":"Bone.008",
			"rotation":[
				-2.980232594040899e-08,
				5.960463766996327e-08,
				0,
				1
			],
			"scale":[
				1,
				0.9999999403953552,
				0.9999999403953552
			],
			"translation":[
				1.6999998092651367,
				-4.76837158203125e-07,
				3.1718573570251465
			]
		},
		{
			"mesh":0,
			"name":"DENTAL",
			"skin":0
		},
		{
			"mesh":1,
			"name":"Sphere",
			"skin":0
		},
		{
			"mesh":2,
			"name":"Sphere.001",
			"skin":0
		},
		{
			"mesh":3,
			"name":"Torus.005",
			"skin":0
		},
		{
			"children":[
				9,
				10,
				11,
				12,
				5,
				6,
				7,
				8
			],
			"name":"design_armature",
			"translation":[
				0,
				6.06419038772583,
				0
			]
		}
	],
	"animations":[
		{
			"channels":[
				{
					"sampler":0,
					"target":{
						"node":5,
						"path":"translation"
					}
				},
				{
					"sampler":1,
					"target":{
						"node":5,
						"path":"rotation"
					}
				},
				{
					"sampler":2,
					"target":{
						"node":5,
						"path":"scale"
					}
				},
				{
					"sampler":3,
					"target":{
						"node":0,
						"path":"translation"
					}
				},
				{
					"sampler":4,
					"target":{
						"node":0,
						"path":"rotation"
					}
				},
				{
					"sampler":5,
					"target":{
						"node":0,
						"path":"scale"
					}
				},
				{
					"sampler":6,
					"target":{
						"node":1,
						"path":"translation"
					}
				},
				{
					"sampler":7,
					"target":{
						"node":1,
						"path":"rotation"
					}
				},
				{
					"sampler":8,
					"target":{
						"node":1,
						"path":"scale"
					}
				},
				{
					"sampler":9,
					"target":{
						"node":2,
						"path":"translation"
					}
				},
				{
					"sampler":10,
					"target":{
						"node":2,
						"path":"rotation"
					}
				},
				{
					"sampler":11,
					"target":{
						"node":2,
						"path":"scale"
					}
				},
				{
					"sampler":12,
					"target":{
						"node":3,
						"path":"translation"
					}
				},
				{
					"sampler":13,
					"target":{
						"node":3,
						"path":"rotation"
					}
				},
				{
					"sampler":14,
					"target":{
						"node":3,
						"path":"scale"
					}
				},
				{
					"sampler":15,
					"target":{
						"node":4,
						"path":"translation"
					}
				},
				{
					"sampler":16,
					"target":{
						"node":4,
						"path":"rotation"
					}
				},
				{
					"sampler":17,
					"target":{
						"node":4,
						"path":"scale"
					}
				},
				{
					"sampler":18,
					"target":{
						"node":6,
						"path":"translation"
					}
				},
				{
					"sampler":19,
					"target":{
						"node":6,
						"path":"rotation"
					}
				},
				{
					"sampler":20,
					"target":{
						"node":6,
						"path":"scale"
					}
				},
				{
					"sampler":21,
					"target":{
						"node":7,
						"path":"translation"
					}
				},
				{
					"sampler":22,
					"target":{
						"node":7,
						"path":"rotation"
					}
				},
				{
					"sampler":23,
					"target":{
						"node":7,
						"path":"scale"
					}
				},
				{
					"sampler":24,
					"target":{
						"node":8,
						"path":"translation"
					}
				},
				{
					"sampler":25,
					"target":{
						"node":8,
						"path":"rotation"
					}
				},
				{
					"sampler":26,
					"target":{
						"node":8,
						"path":"scale"
					}
				}
			],
			"name":"ONE_armature",
			"samplers":[
				{
					"input":24,
					"interpolation":"STEP",
					"output":25
				},
				{
					"input":24,
					"interpolation":"LINEAR",
					"output":26
				},
				{
					"input":27,
					"interpolation":"LINEAR",
					"output":28
				},
				{
					"input":27,
					"interpolation":"LINEAR",
					"output":29
				},
				{
					"input":24,
					"interpolation":"LINEAR",
					"output":30
				},
				{
					"input":27,
					"interpolation":"LINEAR",
					"output":31
				},
				{
					"input":27,
					"interpolation":"LINEAR",
					"output":32
				},
				{
					"input":24,
					"interpolation":"LINEAR",
					"output":33
				},
				{
					"input":27,
					"interpolation":"LINEAR",
					"output":34
				},
				{
					"input":27,
					"interpolation":"LINEAR",
					"output":35
				},
				{
					"input":24,
					"interpolation":"LINEAR",
					"output":36
				},
				{
					"input":27,
					"interpolation":"LINEAR",
					"output":37
				},
				{
					"input":27,
					"interpolation":"LINEAR",
					"output":38
				},
				{
					"input":24,
					"interpolation":"LINEAR",
					"output":39
				},
				{
					"input":27,
					"interpolation":"LINEAR",
					"output":40
				},
				{
					"input":27,
					"interpolation":"LINEAR",
					"output":41
				},
				{
					"input":24,
					"interpolation":"LINEAR",
					"output":42
				},
				{
					"input":27,
					"interpolation":"LINEAR",
					"output":43
				},
				{
					"input":27,
					"interpolation":"LINEAR",
					"output":44
				},
				{
					"input":27,
					"interpolation":"LINEAR",
					"output":45
				},
				{
					"input":27,
					"interpolation":"LINEAR",
					"output":46
				},
				{
					"input":27,
					"interpolation":"LINEAR",
					"output":47
				},
				{
					"input":24,
					"interpolation":"LINEAR",
					"output":48
				},
				{
					"input":27,
					"interpolation":"LINEAR",
					"output":49
				},
				{
					"input":27,
					"interpolation":"LINEAR",
					"output":50
				},
				{
					"input":24,
					"interpolation":"LINEAR",
					"output":51
				},
				{
					"input":27,
					"interpolation":"LINEAR",
					"output":52
				}
			]
		}
	],
	"materials":[
		{
			"doubleSided":true,
			"name":"product",
			"pbrMetallicRoughness":{
				"baseColorFactor":[
					0.04070466011762619,
					0.08144951611757278,
					0.8001194596290588,
					1
				],
				"metallicFactor":0,
				"roughnessFactor":0.5
			}
		},
		{
			"doubleSided":true,
			"name":"hexas",
			"pbrMetallicRoughness":{
				"baseColorFactor":[
					0.8001260757446289,
					0.07942809909582138,
					0.058856986463069916,
					1
				],
				"metallicFactor":0,
				"roughnessFactor":0.5
			}
		}
	],
	"meshes":[
		{
			"name":"Cube.001",
			"primitives":[
				{
					"attributes":{
						"POSITION":0,
						"NORMAL":1,
						"TEXCOORD_0":2,
						"JOINTS_0":3,
						"WEIGHTS_0":4
					},
					"indices":5,
					"material":0
				}
			]
		},
		{
			"name":"Sphere",
			"primitives":[
				{
					"attributes":{
						"POSITION":7,
						"NORMAL":8,
						"TEXCOORD_0":9,
						"JOINTS_0":10,
						"WEIGHTS_0":11
					},
					"indices":12
				}
			]
		},
		{
			"name":"Sphere.001",
			"primitives":[
				{
					"attributes":{
						"POSITION":13,
						"NORMAL":14,
						"TEXCOORD_0":15,
						"JOINTS_0":16,
						"WEIGHTS_0":17
					},
					"indices":12
				}
			]
		},
		{
			"name":"Torus.005",
			"primitives":[
				{
					"attributes":{
						"POSITION":18,
						"NORMAL":19,
						"TEXCOORD_0":20,
						"JOINTS_0":21,
						"WEIGHTS_0":22
					},
					"indices":23,
					"material":1
				}
			]
		}
	],
	"skins":[
		{
			"inverseBindMatrices":6,
			"joints":[
				5,
				0,
				1,
				2,
				3,
				4,
				6,
				7,
				8
			],
			"name":"design_armature"
		}
	],
	"accessors":[
		{
			"bufferView":0,
			"componentType":5126,
			"count":24,
			"max":[
				1.2307007312774658,
				9.009072303771973,
				3.3174524307250977
			],
			"min":[
				-1.2307007312774658,
				3.119307518005371,
				1.8262624740600586
			],
			"type":"VEC3"
		},
		{
			"bufferView":1,
			"componentType":5126,
			"count":24,
			"type":"VEC3"
		},
		{
			"bufferView":2,
			"componentType":5126,
			"count":24,
			"type":"VEC2"
		},
		{
			"bufferView":3,
			"componentType":5121,
			"count":24,
			"type":"VEC4"
		},
		{
			"bufferView":4,
			"componentType":5126,
			"count":24,
			"type":"VEC4"
		},
		{
			"bufferView":5,
			"componentType":5123,
			"count":36,
			"type":"SCALAR"
		},
		{
			"bufferView":6,
			"componentType":5126,
			"count":9,
			"type":"MAT4"
		},
		{
			"bufferView":7,
			"componentType":5126,
			"count":559,
			"max":[
				2.400242328643799,
				6.764430046081543,
				3.872103691101074
			],
			"min":[
				0.9997571110725403,
				5.3639445304870605,
				2.4716174602508545
			],
			"type":"VEC3"
		},
		{
			"bufferView":8,
			"componentType":5126,
			"count":559,
			"type":"VEC3"
		},
		{
			"bufferView":9,
			"componentType":5126,
			"count":559,
			"type":"VEC2"
		},
		{
			"bufferView":10,
			"componentType":5121,
			"count":559,
			"type":"VEC4"
		},
		{
			"bufferView":11,
			"componentType":5126,
			"count":559,
			"type":"VEC4"
		},
		{
			"bufferView":12,
			"componentType":5123,
			"count":2880,
			"type":"SCALAR"
		},
		{
			"bufferView":13,
			"componentType":5126,
			"count":559,
			"max":[
				-0.8830590844154358,
				7.760350227355957,
				3.872103691101074
			],
			"min":[
				-2.2835443019866943,
				6.359864711761475,
				2.4716174602508545
			],
			"type":"VEC3"
		},
		{
			"bufferView":14,
			"componentType":5126,
			"count":559,
			"type":"VEC3"
		},
		{
			"bufferView":15,
			"componentType":5126,
			"count":559,
			"type":"VEC2"
		},
		{
			"bufferView":16,
			"componentType":5121,
			"count":559,
			"type":"VEC4"
		},
		{
			"bufferView":17,
			"componentType":5126,
			"count":559,
			"type":"VEC4"
		},
		{
			"bufferView":18,
			"componentType":5126,
			"count":245,
			"max":[
				3.8797943592071533,
				10.544190406799316,
				0.016288649290800095
			],
			"min":[
				-3.8797945976257324,
				1.5841903686523438,
				-0.016288649290800095
			],
			"type":"VEC3"
		},
		{
			"bufferView":19,
			"componentType":5126,
			"count":245,
			"type":"VEC3"
		},
		{
			"bufferView":20,
			"componentType":5126,
			"count":245,
			"type":"VEC2"
		},
		{
			"bufferView":21,
			"componentType":5121,
			"count":245,
			"type":"VEC4"
		},
		{
			"bufferView":22,
			"componentType":5126,
			"count":245,
			"type":"VEC4"
		},
		{
			"bufferView":23,
			"componentType":5123,
			"count":1080,
			"type":"SCALAR"
		},
		{
			"bufferView":24,
			"componentType":5126,
			"count":2,
			"max":[
				2.2916666666666665
			],
			"min":[
				0.4166666666666667
			],
			"type":"SCALAR"
		},
		{
			"bufferView":25,
			"componentType":5126,
			"count":2,
			"type":"VEC3"
		},
		{
			"bufferView":26,
			"componentType":5126,
			"count":2,
			"type":"VEC4"
		},
		{
			"bufferView":27,
			"componentType":5126,
			"count":46,
			"max":[
				2.2916666666666665
			],
			"min":[
				0.4166666666666667
			],
			"type":"SCALAR"
		},
		{
			"bufferView":28,
			"componentType":5126,
			"count":46,
			"type":"VEC3"
		},
		{
			"bufferView":29,
			"componentType":5126,
			"count":46,
			"type":"VEC3"
		},
		{
			"bufferView":30,
			"componentType":5126,
			"count":2,
			"type":"VEC4"
		},
		{
			"bufferView":31,
			"componentType":5126,
			"count":46,
			"type":"VEC3"
		},
		{
			"bufferView":32,
			"componentType":5126,
			"count":46,
			"type":"VEC3"
		},
		{
			"bufferView":33,
			"componentType":5126,
			"count":2,
			"type":"VEC4"
		},
		{
			"bufferView":34,
			"componentType":5126,
			"count":46,
			"type":"VEC3"
		},
		{
			"bufferView":35,
			"componentType":5126,
			"count":46,
			"type":"VEC3"
		},
		{
			"bufferView":36,
			"componentType":5126,
			"count":2,
			"type":"VEC4"
		},
		{
			"bufferView":37,
			"componentType":5126,
			"count":46,
			"type":"VEC3"
		},
		{
			"bufferView":38,
			"componentType":5126,
			"count":46,
			"type":"VEC3"
		},
		{
			"bufferView":39,
			"componentType":5126,
			"count":2,
			"type":"VEC4"
		},
		{
			"bufferView":40,
			"componentType":5126,
			"count":46,
			"type":"VEC3"
		},
		{
			"bufferView":41,
			"componentType":5126,
			"count":46,
			"type":"VEC3"
		},
		{
			"bufferView":42,
			"componentType":5126,
			"count":2,
			"type":"VEC4"
		},
		{
			"bufferView":43,
			"componentType":5126,
			"count":46,
			"type":"VEC3"
		},
		{
			"bufferView":44,
			"componentType":5126,
			"count":46,
			"type":"VEC3"
		},
		{
			"bufferView":45,
			"componentType":5126,
			"count":46,
			"type":"VEC4"
		},
		{
			"bufferView":46,
			"componentType":5126,
			"count":46,
			"type":"VEC3"
		},
		{
			"bufferView":47,
			"componentType":5126,
			"count":46,
			"type":"VEC3"
		},
		{
			"bufferView":48,
			"componentType":5126,
			"count":2,
			"type":"VEC4"
		},
		{
			"bufferView":49,
			"componentType":5126,
			"count":46,
			"type":"VEC3"
		},
		{
			"bufferView":50,
			"componentType":5126,
			"count":46,
			"type":"VEC3"
		},
		{
			"bufferView":51,
			"componentType":5126,
			"count":2,
			"type":"VEC4"
		},
		{
			"bufferView":52,
			"componentType":5126,
			"count":46,
			"type":"VEC3"
		}
	],
	"bufferViews":[
		{
			"buffer":0,
			"byteLength":288,
			"byteOffset":0,
			"target":34962
		},
		{
			"buffer":0,
			"byteLength":288,
			"byteOffset":288,
			"target":34962
		},
		{
			"buffer":0,
			"byteLength":192,
			"byteOffset":576,
			"target":34962
		},
		{
			"buffer":0,
			"byteLength":96,
			"byteOffset":768,
			"target":34962
		},
		{
			"buffer":0,
			"byteLength":384,
			"byteOffset":864,
			"target":34962
		},
		{
			"buffer":0,
			"byteLength":72,
			"byteOffset":1248,
			"target":34963
		},
		{
			"buffer":0,
			"byteLength":576,
			"byteOffset":1320
		},
		{
			"buffer":0,
			"byteLength":6708,
			"byteOffset":1896,
			"target":34962
		},
		{
			"buffer":0,
			"byteLength":6708,
			"byteOffset":8604,
			"target":34962
		},
		{
			"buffer":0,
			"byteLength":4472,
			"byteOffset":15312,
			"target":34962
		},
		{
			"buffer":0,
			"byteLength":2236,
			"byteOffset":19784,
			"target":34962
		},
		{
			"buffer":0,
			"byteLength":8944,
			"byteOffset":22020,
			"target":34962
		},
		{
			"buffer":0,
			"byteLength":5760,
			"byteOffset":30964,
			"target":34963
		},
		{
			"buffer":0,
			"byteLength":6708,
			"byteOffset":36724,
			"target":34962
		},
		{
			"buffer":0,
			"byteLength":6708,
			"byteOffset":43432,
			"target":34962
		},
		{
			"buffer":0,
			"byteLength":4472,
			"byteOffset":50140,
			"target":34962
		},
		{
			"buffer":0,
			"byteLength":2236,
			"byteOffset":54612,
			"target":34962
		},
		{
			"buffer":0,
			"byteLength":8944,
			"byteOffset":56848,
			"target":34962
		},
		{
			"buffer":0,
			"byteLength":2940,
			"byteOffset":65792,
			"target":34962
		},
		{
			"buffer":0,
			"byteLength":2940,
			"byteOffset":68732,
			"target":34962
		},
		{
			"buffer":0,
			"byteLength":1960,
			"byteOffset":71672,
			"target":34962
		},
		{
			"buffer":0,
			"byteLength":980,
			"byteOffset":73632,
			"target":34962
		},
		{
			"buffer":0,
			"byteLength":3920,
			"byteOffset":74612,
			"target":34962
		},
		{
			"buffer":0,
			"byteLength":2160,
			"byteOffset":78532,
			"target":34963
		},
		{
			"buffer":0,
			"byteLength":8,
			"byteOffset":80692
		},
		{
			"buffer":0,
			"byteLength":24,
			"byteOffset":80700
		},
		{
			"buffer":0,
			"byteLength":32,
			"byteOffset":80724
		},
		{
			"buffer":0,
			"byteLength":184,
			"byteOffset":80756
		},
		{
			"buffer":0,
			"byteLength":552,
			"byteOffset":80940
		},
		{
			"buffer":0,
			"byteLength":552,
			"byteOffset":81492
		},
		{
			"buffer":0,
			"byteLength":32,
			"byteOffset":82044
		},
		{
			"buffer":0,
			"byteLength":552,
			"byteOffset":82076
		},
		{
			"buffer":0,
			"byteLength":552,
			"byteOffset":82628
		},
		{
			"buffer":0,
			"byteLength":32,
			"byteOffset":83180
		},
		{
			"buffer":0,
			"byteLength":552,
			"byteOffset":83212
		},
		{
			"buffer":0,
			"byteLength":552,
			"byteOffset":83764
		},
		{
			"buffer":0,
			"byteLength":32,
			"byteOffset":84316
		},
		{
			"buffer":0,
			"byteLength":552,
			"byteOffset":84348
		},
		{
			"buffer":0,
			"byteLength":552,
			"byteOffset":84900
		},
		{
			"buffer":0,
			"byteLength":32,
			"byteOffset":85452
		},
		{
			"buffer":0,
			"byteLength":552,
			"byteOffset":85484
		},
		{
			"buffer":0,
			"byteLength":552,
			"byteOffset":86036
		},
		{
			"buffer":0,
			"byteLength":32,
			"byteOffset":86588
		},
		{
			"buffer":0,
			"byteLength":552,
			"byteOffset":86620
		},
		{
			"buffer":0,
			"byteLength":552,
			"byteOffset":87172
		},
		{
			"buffer":0,
			"byteLength":736,
			"byteOffset":87724
		},
		{
			"buffer":0,
			"byteLength":552,
			"byteOffset":88460
		},
		{
			"buffer":0,
			"byteLength":552,
			"byteOffset":89012
		},
		{
			"buffer":0,
			"byteLength":32,
			"byteOffset":89564
		},
		{
			"buffer":0,
			"byteLength":552,
			"byteOffset":89596
		},
		{
			"buffer":0,
			"byteLength":552,
			"byteOffset":90148
		},
		{
			"buffer":0,
			"byteLength":32,
			"byteOffset":90700
		},
		{
			"buffer":0,
			"byteLength":552,
			"byteOffset":90732
		}
	],
	"buffers":[
		{
			"byteLength":91284,
			"uri":"AR_anim%20test_1armature_003.bin"
		}
	]
}
